<?xml version="1.0" standalone="no"?>
<!DOCTYPE svg PUBLIC "-//W3C//DTD SVG 20010904//EN"
 "http://www.w3.org/TR/2001/REC-SVG-20010904/DTD/svg10.dtd">
<svg version="1.0" xmlns="http://www.w3.org/2000/svg"
 width="499.000000pt" height="499.000000pt" viewBox="0 0 499.000000 499.000000"
 preserveAspectRatio="xMidYMid meet">

<g transform="translate(0.000000,499.000000) scale(0.100000,-0.100000)"
fill="#000000" stroke="none">
<path d="M2158 3941 c-42 -14 -94 -49 -122 -82 -25 -30 -26 -30 -53 -12 -22
14 -48 18 -133 18 -95 0 -110 -3 -156 -27 -99 -52 -157 -137 -172 -252 -7 -54
-8 -56 -62 -88 -121 -73 -150 -190 -84 -344 3 -6 -21 -20 -53 -32 -174 -65
-247 -208 -190 -378 l17 -50 -45 -47 c-57 -60 -93 -130 -111 -221 -28 -133 11
-253 117 -359 l59 -59 -11 -62 c-24 -130 16 -222 122 -275 34 -17 68 -31 74
-31 10 0 11 -21 8 -83 -5 -71 -2 -90 17 -135 38 -88 130 -149 253 -168 31 -5
53 -18 84 -49 50 -50 170 -114 263 -141 44 -12 96 -18 160 -18 119 1 184 27
247 98 61 69 74 117 80 283 l5 142 -23 5 c-13 3 -51 8 -84 11 -166 17 -360
110 -507 243 -57 51 -144 172 -188 260 -128 259 -129 555 0 813 134 271 418
477 692 504 34 3 74 8 86 11 l24 5 -4 162 c-4 184 -12 211 -83 282 -67 67
-158 98 -227 76z"/>
<path d="M2724 3940 c-91 -28 -183 -129 -198 -217 -3 -21 -6 -97 -6 -170 l0
-131 28 -6 c15 -2 54 -8 87 -11 203 -22 439 -159 580 -338 268 -339 269 -805
1 -1143 -158 -200 -374 -316 -648 -349 l-48 -6 0 -103 c0 -182 31 -281 111
-350 60 -51 125 -70 234 -69 147 2 302 61 399 153 39 37 61 49 96 55 113 19
202 73 243 148 18 35 22 58 22 139 l0 96 35 11 c133 40 200 159 171 303 l-12
56 59 58 c66 67 109 145 121 225 19 120 -28 266 -116 357 l-45 47 15 45 c36
107 29 190 -23 265 -31 46 -116 103 -183 125 -30 9 -37 16 -31 29 64 155 33
272 -92 342 -50 29 -51 31 -57 83 -12 122 -89 223 -203 265 -49 19 -74 22
-145 19 -59 -3 -95 -9 -113 -21 -25 -17 -26 -17 -64 21 -64 64 -151 92 -218
72z"/>
<path d="M2357 3350 c-337 -61 -595 -290 -693 -615 -24 -79 -27 -107 -28 -235
-1 -122 3 -158 22 -223 88 -307 298 -522 597 -613 81 -25 105 -28 240 -27 133
0 160 3 238 27 294 89 504 299 593 593 24 79 27 104 27 238 0 134 -3 159 -27
238 -89 295 -301 507 -591 592 -99 29 -287 42 -378 25z m253 -70 c264 -42 502
-221 606 -457 50 -113 68 -200 68 -328 0 -171 -41 -308 -134 -445 -108 -159
-260 -266 -458 -322 -108 -31 -286 -31 -394 0 -198 56 -350 163 -458 322 -93
137 -134 274 -134 445 0 128 18 215 68 328 138 313 498 510 836 457z"/>
<path d="M2462 3168 l3 -73 30 0 30 0 3 73 3 72 -36 0 -36 0 3 -72z"/>
<path d="M1965 3020 c-19 -21 -18 -22 33 -73 l52 -52 22 23 22 22 -49 50 c-27
27 -52 50 -56 50 -3 0 -14 -9 -24 -20z"/>
<path d="M2945 2990 l-49 -50 22 -22 22 -23 52 52 c51 51 52 52 33 73 -10 11
-21 20 -24 20 -4 0 -29 -23 -56 -50z"/>
<path d="M2010 2783 c0 -5 9 -22 19 -39 14 -24 65 -57 195 -129 147 -81 176
-101 176 -120 0 -12 11 -39 25 -59 l24 -36 -55 -186 c-31 -102 -53 -193 -49
-201 10 -27 20 -4 60 132 77 265 72 252 105 258 37 8 69 39 76 75 5 26 23 35
250 127 225 92 246 103 269 136 l24 37 -22 6 c-43 11 -83 5 -125 -19 -24 -14
-125 -67 -225 -119 l-182 -94 -30 19 c-36 23 -61 24 -99 4 -15 -8 -33 -12 -40
-8 -6 3 -82 55 -168 115 -128 88 -164 108 -192 108 -20 0 -36 -3 -36 -7z m516
-264 c13 -15 16 -24 8 -36 -20 -32 -41 -38 -63 -19 -25 23 -26 39 -5 60 21 21
37 20 60 -5z"/>
<path d="M1750 2495 l0 -36 73 3 72 3 0 30 0 30 -72 3 -73 3 0 -36z"/>
<path d="M3094 2516 c-3 -8 -4 -23 -2 -33 3 -15 14 -18 73 -18 l70 0 3 33 3
32 -71 0 c-52 0 -72 -4 -76 -14z"/>
<path d="M1995 2040 l-49 -50 22 -22 22 -23 52 52 c51 51 52 52 33 73 -10 11
-21 20 -24 20 -4 0 -29 -23 -56 -50z"/>
<path d="M2915 2070 c-19 -21 -18 -22 33 -73 l52 -52 22 23 22 22 -49 50 c-27
27 -52 50 -56 50 -3 0 -14 -9 -24 -20z"/>
<path d="M2467 1894 c-4 -4 -7 -38 -7 -76 l0 -68 35 0 36 0 -3 73 c-3 69 -4
72 -28 75 -14 2 -29 0 -33 -4z"/>
</g>
</svg>
